IKResults-ET1
version=1
nRows=17
nColumns=24
inDegrees=yes

Units are S.I. units (second, meters, Newtons, ...)
If the header above contains a line with 'inDegrees', this indicates whether rotational values are in degrees (yes) or radians (no).

endheader
time	pelvis_tilt	pelvis_list	pelvis_rotation	pelvis_tx	pelvis_ty	pelvis_tz	hip_flexion_r	hip_adduction_r	hip_rotation_r	knee_angle_r	ankle_angle_r	subtalar_angle_r	mtp_angle_r	hip_flexion_l	hip_adduction_l	hip_rotation_l	knee_angle_l	ankle_angle_l	subtalar_angle_l	mtp_angle_l	lumbar_extension	lumbar_bending	lumbar_rotation
      4.22000000	      4.81016831	     -2.09893573	    189.44116101	      2.68071754	      0.95962727	     -0.11156301	     31.58253833	     -2.96872529	     -0.06207664	    -10.46519614	      7.16767835	     -0.08549442	      0.00000000	     -8.63727214	      4.33338158	      8.43040862	    -29.29445593	     18.09650608	     11.89256008	      0.00000000	    -13.58387178	     -3.25386318	     -8.59105341
      4.23000000	      5.10639011	     -1.27305015	    189.61248323	      2.66383985	      0.95958113	     -0.11243198	     31.22846098	     -2.08302809	     -0.37430080	    -10.44279184	      4.69649620	     -0.92404468	      0.00000000	     -7.63329921	      3.19825666	      7.75027749	    -31.56643871	     16.15102032	     12.82635642	      0.00000000	    -13.01787090	     -2.23774663	     -8.47476748
      4.24000000	      5.30845404	     -0.36692177	    189.65065958	      2.64696387	      0.96013878	     -0.11351017	     30.90966949	     -1.06218747	     -0.59663241	    -10.67477557	      2.42492886	     -2.05375380	      0.00000000	     -6.54341547	      1.88141438	      6.69932856	    -34.01639505	     13.82767841	     14.23050289	      0.00000000	    -12.51898017	     -1.18658633	     -8.21699000
      4.25000000	      5.39406183	      0.57716318	    189.56645396	      2.63018699	      0.96105525	     -0.11461533	     30.55548539	     -0.00035608	     -0.71351302	    -11.18407277	      0.93317028	     -3.00075594	      0.00000000	     -5.33438410	      0.49103713	      5.65548182	    -36.73018024	     11.00537766	     15.50261828	      0.00000000	    -12.16930599	     -0.05505055	     -7.82014255
      4.26000000	      5.44895582	      1.48656998	    189.36784634	      2.61382627	      0.96221622	     -0.11574440	     30.28267063	      1.05960148	     -1.03759519	    -11.97439615	      0.17263044	     -2.93900577	      0.00000000	     -3.99530865	     -0.89554491	      4.52207165	    -39.60932882	      7.90108742	     16.41816610	      0.00000000	    -11.86724130	      1.23027370	     -7.57088700
      4.27000000	      5.40364602	      2.38176634	    189.06080192	      2.59757200	      0.96375871	     -0.11723335	     29.83519514	      2.18508754	     -1.25867673	    -12.67440910	     -0.24017227	     -2.98271434	      0.00000000	     -2.58470506	     -2.30458437	      3.52572700	    -42.63298210	      4.24844115	     17.38113212	      0.00000000	    -11.72370087	      2.32622440	     -7.19032992
      4.28000000	      5.30491630	      3.20443895	    188.67833453	      2.58148213	      0.96541238	     -0.11882594	     29.26120273	      3.25325319	     -1.43586084	    -13.31535882	     -0.28121140	     -2.87377447	      0.00000000	     -1.16371381	     -3.46654904	      3.07484591	    -45.66156579	      0.53283543	     17.20315089	      0.00000000	    -11.74131390	      3.25776575	     -5.80990259
      4.29000000	      5.14020784	      3.97697866	    188.27031962	      2.56575979	      0.96747125	     -0.12053562	     28.48954734	      4.33307222	     -1.67174895	    -13.72531695	     -0.10310984	     -2.44093514	      0.00000000	      0.29475557	     -4.55212756	      2.78989948	    -48.65874319	     -3.61884572	     16.35530245	      0.00000000	    -11.90635975	      4.09014613	     -5.23481949
      4.30000000	      4.89547243	      4.63987365	    187.91682363	      2.55032285	      0.96977327	     -0.12203445	     27.51002950	      5.28474717	     -2.03324064	    -13.98455860	      0.57164829	     -1.39703820	      0.00000000	      1.75036776	     -5.40311478	      2.84649572	    -51.57444547	     -7.71127944	     15.16028004	      0.00000000	    -12.17117847	      4.97705800	     -4.46470289
      4.31000000	      4.63140547	      5.27465800	    187.41903546	      2.53471511	      0.97215579	     -0.12379107	     26.40379580	      6.34316904	     -2.06366492	    -14.10027231	      1.14200762	     -0.62367209	      0.00000000	      3.09732593	     -6.19834532	      2.86054044	    -54.18303011	    -11.38556632	     13.72927016	      0.00000000	    -12.52092454	      5.59340192	     -3.79468465
      4.32000000	      4.38876270	      5.83348861	    186.97648682	      2.51956924	      0.97455853	     -0.12536676	     25.24552749	      7.29630724	     -2.15041990	    -14.07598216	      1.76078206	      0.02206095	      0.00000000	      4.48627988	     -6.85766905	      2.92241918	    -56.57837891	    -12.96485167	     12.65240727	      0.00000000	    -12.87642514	      6.19530499	     -3.03977300
      4.33000000	      4.07823064	      6.32909373	    186.53358573	      2.50420343	      0.97704451	     -0.12686967	     23.87787595	      8.21844668	     -2.11975123	    -13.85957085	      2.34431365	      0.61833507	      0.00000000	      5.77465628	     -7.42562033	      2.91745376	    -58.86176086	    -11.83726174	     11.45564897	      0.00000000	    -13.31414629	      6.66410092	     -2.27388047
      4.34000000	      3.79783944	      6.71074543	    186.18626861	      2.48903330	      0.97956273	     -0.12812195	     22.44742482	      9.00181154	     -1.98041690	    -13.48467440	      2.81259526	      0.82754644	      0.00000000	      7.13258748	     -7.79686015	      3.00510496	    -60.93403088	     -9.55320755	     10.37039061	      0.00000000	    -13.61262065	      7.07411150	     -1.96355729
      4.35000000	      3.64420877	      6.84570863	    185.93449955	      2.47416779	      0.98193139	     -0.12900364	     21.21159930	      9.40680695	     -2.35519838	    -13.29798847	      3.64242502	      2.02560988	      0.00000000	      8.68101644	     -7.78761687	      3.22047887	    -62.62741662	     -7.51312643	      8.77077712	      0.00000000	    -13.89476745	      7.10137114	     -1.18887956
      4.36000000	      3.51297682	      6.92499921	    185.76567509	      2.45916250	      0.98438020	     -0.12983015	     19.71191712	      9.77765221	     -2.19100503	    -12.54849817	      3.96569703	      2.16133799	      0.00000000	     10.26932179	     -7.71824142	      3.45394181	    -63.93516638	     -5.73220764	      7.64619521	      0.00000000	    -14.10392022	      7.07724730	     -0.73422436
      4.37000000	      3.47712514	      6.94180444	    185.72113638	      2.44431866	      0.98665028	     -0.13036598	     18.35871210	      9.99543848	     -2.17059377	    -11.90077597	      4.32268650	      2.32089357	      0.00000000	     12.00676844	     -7.54127991	      3.78529430	    -64.96330240	     -3.82066730	      6.66934725	      0.00000000	    -14.12604072	      6.96670904	     -0.62868805
      4.38000000	      3.41583441	      6.84378118	    185.69287238	      2.42938381	      0.98903753	     -0.13096789	     16.98272375	     10.08677087	     -2.10972896	    -11.30466958	      4.67167871	      2.71251532	      0.00000000	     13.74448354	     -7.26121499	      4.01382175	    -65.76833228	     -2.11065600	      5.72130929	      0.00000000	    -14.18957495	      6.72001636	     -0.49596020
